<svg id="Layer_1" data-name="Layer 1" xmlns="http://www.w3.org/2000/svg" viewBox="0 0 928.8 698.4"><defs><style>.cls-1{fill:#fcaece;}.cls-2{fill:none;stroke:#fcaece;stroke-miterlimit:10;stroke-width:9px;}.cls-3{font-size:41px;font-family:CaviarDreams-Bold, Caviar Dreams;font-weight:700;}.cls-4{font-size:64px;font-family:CaviarDreams, Caviar Dreams;}.cls-5{letter-spacing:-0.01em;}.cls-6{letter-spacing:0.02em;}.cls-7{letter-spacing:-0.02em;}.cls-8{font-size:27px;font-family:Gotham-Thin, Gotham;}.cls-9{letter-spacing:-0.01em;}.cls-10{letter-spacing:-0.02em;}.cls-11{letter-spacing:-0.02em;}.cls-12{letter-spacing:-0.02em;}.cls-13{letter-spacing:-0.08em;}</style></defs><title>women suf</title><rect class="cls-1" x="66.14" y="421.85" width="803.96" height="9"/><line class="cls-2" x1="126.14" y1="315.35" x2="126.14" y2="426.35"/><line class="cls-2" x1="198.13" y1="430.85" x2="198.13" y2="541.84"/><line class="cls-2" x1="306.13" y1="315.35" x2="306.13" y2="426.35"/><line class="cls-2" x1="397.62" y1="430.85" x2="397.62" y2="541.84"/><line class="cls-2" x1="505.62" y1="315.35" x2="505.62" y2="426.35"/><line class="cls-2" x1="578.37" y1="430.85" x2="578.37" y2="541.84"/><line class="cls-2" x1="688.61" y1="315.35" x2="688.61" y2="426.35"/><line class="cls-2" x1="759.11" y1="430.85" x2="759.11" y2="541.84"/><text class="cls-3" transform="translate(66.14 297.89)">1920s</text><text class="cls-3" transform="translate(138.14 588.87)">1930s</text><text class="cls-3" transform="translate(249.88 305.39)">1940s</text><text class="cls-3" transform="translate(332.38 588.87)">1950s</text><text class="cls-3" transform="translate(441.87 305.39)">1960s</text><text class="cls-3" transform="translate(516.12 588.87)">1970s</text><text class="cls-3" transform="translate(625.61 305.39)">1980s</text><text class="cls-3" transform="translate(699.86 588.87)">1990s</text><text class="cls-4" transform="translate(138.14 136.86)"><tspan class="cls-5">W</tspan><tspan x="51.63" y="0">OME</tspan><tspan class="cls-6" x="197.69" y="0">N</tspan><tspan x="239.84" y="0">’S SUFFR</tspan><tspan class="cls-7" x="472.84" y="0">A</tspan><tspan x="511.94" y="0">GE</tspan></text><text class="cls-8" transform="translate(138.14 172.57)">A <tspan class="cls-9" x="28.27" y="0">L</tspan><tspan x="43.77" y="0">ook </tspan><tspan class="cls-10" x="100.22" y="0">T</tspan><tspan x="115.4" y="0">h</tspan><tspan class="cls-11" x="131.81" y="0">r</tspan><tspan x="140.18" y="0">ough Hi</tspan><tspan class="cls-9" x="241.35" y="0">s</tspan><tspan class="cls-12" x="254.31" y="0">t</tspan><tspan x="263.97" y="0">or</tspan><tspan class="cls-13" x="290.14" y="0">y</tspan><tspan x="303.34" y="0">...</tspan></text></svg>