<svg xmlns="http://www.w3.org/2000/svg" width="1024" height="768" viewBox="0 0 1024 768">
  <defs>
    <style>
      .cls-1 {
        fill: #fcaece;
      }

      .cls-2 {
        fill: none;
        stroke: #fcaece;
        stroke-miterlimit: 10;
        stroke-width: 9px;
      }
    </style>
  </defs>
  <title>women_suf-timeline-09</title>
  <g id="Layer_1" data-name="Layer 1">
    <rect class="cls-1" x="113.74" y="456.65" width="803.96" height="9"/>
    <line class="cls-2" x1="173.74" y1="350.15" x2="173.74" y2="461.15"/>
    <line class="cls-2" x1="245.73" y1="465.65" x2="245.73" y2="576.64"/>
    <line class="cls-2" x1="353.73" y1="350.15" x2="353.73" y2="461.15"/>
    <line class="cls-2" x1="445.22" y1="465.65" x2="445.22" y2="576.64"/>
    <line class="cls-2" x1="553.22" y1="350.15" x2="553.22" y2="461.15"/>
    <line class="cls-2" x1="625.97" y1="465.65" x2="625.97" y2="576.64"/>
    <line class="cls-2" x1="736.21" y1="350.15" x2="736.21" y2="461.15"/>
    <line class="cls-2" x1="806.71" y1="465.65" x2="806.71" y2="576.64"/>
    <g>
      <path d="M203.61,591.64v32h-4.14V597h-3.06l4.21-5.41Z"/>
      <path d="M232.16,611.4q-1.78,1.92-5.91,1.92a9.34,9.34,0,0,1-6.89-2.74,11.39,11.39,0,0,1,16.1-16.12q3.2,3.22,3.22,8.95v.06a16.75,16.75,0,0,1-3.06,10,126.88,126.88,0,0,1-8.33,10.23h-5.45A87.07,87.07,0,0,0,232.16,611.4Zm2.4-8.89a7.13,7.13,0,1,0-2.09,5A6.85,6.85,0,0,0,234.57,602.51Z"/>
      <path d="M252.14,607.18l-2.5-.06V603a12.72,12.72,0,0,0,3.58-.37,5.48,5.48,0,0,0,1.88-1.41,3.51,3.51,0,0,0,1-2.48,3.16,3.16,0,0,0-1-2.33,3.35,3.35,0,0,0-4.67,0,7.89,7.89,0,0,0-1.24,2.44l-3.86-1.52a9.18,9.18,0,0,1,2.1-3.88,7.56,7.56,0,0,1,12.89,5.31q0,3.12-3.7,6a6.21,6.21,0,0,1,3.74,2,10.25,10.25,0,0,1,2.86,7.21,10,10,0,0,1-10,10.07,9.63,9.63,0,0,1-7.09-3,11.47,11.47,0,0,1-3-6.55l4.14-1.5q.36,3.6,1.82,5.06a5.83,5.83,0,0,0,10-4.12,6.17,6.17,0,0,0-1.71-4.3A9.19,9.19,0,0,0,252.14,607.18Z"/>
      <path d="M290.62,612.8a11.38,11.38,0,0,1-22.76,0V603a11.38,11.38,0,0,1,22.76,0ZM286.38,603a6.83,6.83,0,0,0-2.09-5,7.15,7.15,0,0,0-10.09,0,6.83,6.83,0,0,0-2.09,5v9.79a7.14,7.14,0,0,0,14.27,0Z"/>
      <path d="M299.31,619.25a2.44,2.44,0,0,0,1.76.72,2.48,2.48,0,0,0,2.48-2.5,2.37,2.37,0,0,0-.72-1.74,14.55,14.55,0,0,0-2.14-1.54,14.49,14.49,0,0,1-3.18-2.16,5.38,5.38,0,0,1-1.64-3.94,5.62,5.62,0,0,1,5.61-5.63,5.21,5.21,0,0,1,3.86,1.56,5,5,0,0,1,1.4,2.46l-4,1.16a1.88,1.88,0,0,0-.28-.66,1.3,1.3,0,0,0-1-.36,1.47,1.47,0,0,0-1.46,1.46,1.39,1.39,0,0,0,.42,1,14,14,0,0,0,1.72,1.22,16.45,16.45,0,0,1,3.6,2.48,6.63,6.63,0,1,1-9.37,9.37,6.49,6.49,0,0,1-1.76-3.34l4.12-.88A2.52,2.52,0,0,0,299.31,619.25Z"/>
    </g>
    <g>
      <path d="M397.85,591.64v32h-4.14V597h-3.06l4.21-5.41Z"/>
      <path d="M426.4,611.4q-1.78,1.92-5.91,1.92a9.34,9.34,0,0,1-6.89-2.74,11.39,11.39,0,0,1,16.1-16.12q3.2,3.22,3.22,8.95v.06a16.75,16.75,0,0,1-3.06,10,126.88,126.88,0,0,1-8.33,10.23h-5.45A87.07,87.07,0,0,0,426.4,611.4Zm2.4-8.89a7.13,7.13,0,1,0-2.09,5A6.85,6.85,0,0,0,428.81,602.51Z"/>
      <path d="M443.4,600.29a11.15,11.15,0,0,1,2.34-.24,13,13,0,0,1,4.3.72,11.87,11.87,0,0,1,6.89,5.85,11.36,11.36,0,0,1,1.42,5.45,11.7,11.7,0,0,1-.54,3.48,11.7,11.7,0,0,1-11.07,8.33,12,12,0,0,1-3.56-.56,12.58,12.58,0,0,1-6.45-4.84l2.92-3.24a9.32,9.32,0,0,0,4.76,4,7.62,7.62,0,0,0,2.26.36,7.34,7.34,0,0,0,3.44-.88,7.21,7.21,0,0,0,3.64-4.44,7.48,7.48,0,0,0,.36-2.26,7.28,7.28,0,0,0-.9-3.44,7.81,7.81,0,0,0-4.48-3.8,8.6,8.6,0,0,0-2.88-.46,19,19,0,0,0-5.48,1.06l-2.5-2.18,3.6-9.95v-1.62h11.73v4.14H445Z"/>
      <path d="M485,612.8a11.38,11.38,0,0,1-22.76,0V603A11.38,11.38,0,0,1,485,603ZM480.74,603a6.83,6.83,0,0,0-2.09-5,7.15,7.15,0,0,0-10.09,0,6.83,6.83,0,0,0-2.09,5v9.79a7.14,7.14,0,0,0,14.27,0Z"/>
      <path d="M493.67,619.25a2.44,2.44,0,0,0,1.76.72,2.48,2.48,0,0,0,2.48-2.5,2.37,2.37,0,0,0-.72-1.74,14.55,14.55,0,0,0-2.14-1.54,14.49,14.49,0,0,1-3.18-2.16,5.38,5.38,0,0,1-1.64-3.94,5.62,5.62,0,0,1,5.61-5.63A5.21,5.21,0,0,1,499.7,604a5,5,0,0,1,1.4,2.46l-4,1.16a1.88,1.88,0,0,0-.28-.66,1.3,1.3,0,0,0-1-.36,1.47,1.47,0,0,0-1.46,1.46,1.39,1.39,0,0,0,.42,1,14,14,0,0,0,1.72,1.22,16.45,16.45,0,0,1,3.6,2.48,6.63,6.63,0,1,1-9.37,9.37,6.49,6.49,0,0,1-1.76-3.34l4.12-.88A2.52,2.52,0,0,0,493.67,619.25Z"/>
    </g>
    <g>
      <path d="M507.35,308.16v32h-4.14V313.56h-3.06l4.21-5.41Z"/>
      <path d="M535.9,327.91q-1.78,1.92-5.91,1.92a9.34,9.34,0,0,1-6.89-2.74A11.39,11.39,0,0,1,539.2,311q3.2,3.22,3.22,8.95V320a16.75,16.75,0,0,1-3.06,10A126.88,126.88,0,0,1,531,340.19h-5.45A87.07,87.07,0,0,0,535.9,327.91Zm2.4-8.89a7.13,7.13,0,1,0-2.09,5A6.85,6.85,0,0,0,538.3,319Z"/>
      <path d="M552.13,320.43q1.78-1.92,5.91-1.92a9.34,9.34,0,0,1,6.89,2.74,11.39,11.39,0,0,1-16.1,16.12q-3.2-3.22-3.22-8.95v-.06a16.75,16.75,0,0,1,3.06-10A127,127,0,0,1,557,308.16h5.45A87,87,0,0,0,552.13,320.43Zm-2.4,8.89a7.13,7.13,0,1,0,2.09-5A6.85,6.85,0,0,0,549.73,329.32Z"/>
      <path d="M594,329.32a11.38,11.38,0,0,1-22.76,0v-9.79a11.38,11.38,0,0,1,22.76,0Zm-4.24-9.79a6.83,6.83,0,0,0-2.09-5,7.15,7.15,0,0,0-10.09,0,6.83,6.83,0,0,0-2.09,5v9.79a7.14,7.14,0,0,0,14.27,0Z"/>
      <path d="M602.7,335.76a2.44,2.44,0,0,0,1.76.72,2.48,2.48,0,0,0,2.48-2.5,2.37,2.37,0,0,0-.72-1.74,14.55,14.55,0,0,0-2.14-1.54,14.49,14.49,0,0,1-3.18-2.16,5.38,5.38,0,0,1-1.64-3.94,5.62,5.62,0,0,1,5.61-5.63,5.21,5.21,0,0,1,3.86,1.56,5,5,0,0,1,1.4,2.46l-4,1.16a1.88,1.88,0,0,0-.28-.66,1.3,1.3,0,0,0-1-.36,1.47,1.47,0,0,0-1.46,1.46,1.39,1.39,0,0,0,.42,1,14,14,0,0,0,1.72,1.22,16.45,16.45,0,0,1,3.6,2.48,6.63,6.63,0,1,1-9.37,9.37,6.49,6.49,0,0,1-1.76-3.34l4.12-.88A2.52,2.52,0,0,0,602.7,335.76Z"/>
    </g>
    <g>
      <path d="M581.6,591.64v32h-4.14V597h-3.06l4.21-5.41Z"/>
      <path d="M610.14,611.4q-1.78,1.92-5.91,1.92a9.34,9.34,0,0,1-6.89-2.74,11.39,11.39,0,0,1,16.1-16.12q3.2,3.22,3.22,8.95v.06a16.75,16.75,0,0,1-3.06,10,126.88,126.88,0,0,1-8.33,10.23h-5.45A87.07,87.07,0,0,0,610.14,611.4Zm2.4-8.89a7.13,7.13,0,1,0-2.09,5A6.85,6.85,0,0,0,612.55,602.51Z"/>
      <path d="M636,603.74a110.4,110.4,0,0,0-7.7,9.44q-2.72,3.86-2.92,10.49h-4.22q.24-8.19,3.32-12.5a108.2,108.2,0,0,1,7.35-9.09q4.26-4.78,4.58-6.3H621.23v-4.14h19.92A18.47,18.47,0,0,1,636,603.74Z"/>
      <path d="M668.52,612.8a11.38,11.38,0,0,1-22.76,0V603a11.38,11.38,0,0,1,22.76,0ZM664.28,603a6.83,6.83,0,0,0-2.09-5,7.15,7.15,0,0,0-10.09,0,6.83,6.83,0,0,0-2.09,5v9.79a7.14,7.14,0,0,0,14.27,0Z"/>
      <path d="M677.21,619.25A2.44,2.44,0,0,0,679,620a2.48,2.48,0,0,0,2.48-2.5,2.37,2.37,0,0,0-.72-1.74,14.55,14.55,0,0,0-2.14-1.54,14.49,14.49,0,0,1-3.18-2.16,5.38,5.38,0,0,1-1.64-3.94,5.62,5.62,0,0,1,5.61-5.63,5.21,5.21,0,0,1,3.86,1.56,5,5,0,0,1,1.4,2.46l-4,1.16a1.88,1.88,0,0,0-.28-.66,1.3,1.3,0,0,0-1-.36,1.47,1.47,0,0,0-1.46,1.46,1.39,1.39,0,0,0,.42,1,14,14,0,0,0,1.72,1.22,16.45,16.45,0,0,1,3.6,2.48,6.63,6.63,0,1,1-9.37,9.37,6.49,6.49,0,0,1-1.76-3.34l4.12-.88A2.52,2.52,0,0,0,677.21,619.25Z"/>
    </g>
    <g>
      <path d="M691.09,308.16v32h-4.14V313.56h-3.06l4.21-5.41Z"/>
      <path d="M719.64,327.91q-1.78,1.92-5.91,1.92a9.34,9.34,0,0,1-6.89-2.74A11.39,11.39,0,0,1,722.94,311q3.2,3.22,3.22,8.95V320a16.75,16.75,0,0,1-3.06,10,126.88,126.88,0,0,1-8.33,10.23h-5.45A87.07,87.07,0,0,0,719.64,327.91ZM722,319a7.13,7.13,0,1,0-2.09,5A6.85,6.85,0,0,0,722,319Z"/>
      <path d="M740.58,340.59a10.61,10.61,0,0,1-7.87-3,9.71,9.71,0,0,1-2.94-7.12q0-5.12,5.63-9.23a8.81,8.81,0,0,1-2.7-6,7.54,7.54,0,0,1,7.55-7.51h.66a7.55,7.55,0,0,1,7.57,7.51,8.33,8.33,0,0,1-2.92,6q5.84,4.16,5.85,9.29a9.72,9.72,0,0,1-2.94,7.12A10.61,10.61,0,0,1,740.58,340.59Zm0-4.24a6.61,6.61,0,0,0,4.87-1.7,5.6,5.6,0,0,0,1.71-4.12,6.05,6.05,0,0,0-1.7-4.26,6,6,0,0,0-9.79,0,6.09,6.09,0,0,0-1.68,4.26,5.61,5.61,0,0,0,1.7,4.12A6.61,6.61,0,0,0,740.58,336.34Zm-.1-24.34-.24,0a3.26,3.26,0,0,0-3.28,3.28,3.53,3.53,0,0,0,1,2.48,5.4,5.4,0,0,0,1.83,1.4,1.49,1.49,0,0,0,1.56,0,5.58,5.58,0,0,0,1.82-1.4,3.51,3.51,0,0,0,1-2.48,3.16,3.16,0,0,0-1-2.33,3.21,3.21,0,0,0-2.34-1l-.22,0Z"/>
      <path d="M777.82,329.32a11.38,11.38,0,0,1-22.76,0v-9.79a11.38,11.38,0,0,1,22.76,0Zm-4.24-9.79a6.83,6.83,0,0,0-2.09-5,7.15,7.15,0,0,0-10.09,0,6.83,6.83,0,0,0-2.09,5v9.79a7.14,7.14,0,0,0,14.27,0Z"/>
      <path d="M786.51,335.76a2.44,2.44,0,0,0,1.76.72,2.48,2.48,0,0,0,2.48-2.5,2.37,2.37,0,0,0-.72-1.74,14.55,14.55,0,0,0-2.14-1.54,14.49,14.49,0,0,1-3.18-2.16,5.38,5.38,0,0,1-1.64-3.94,5.62,5.62,0,0,1,5.61-5.63,5.21,5.21,0,0,1,3.86,1.56,5,5,0,0,1,1.4,2.46l-4,1.16a1.88,1.88,0,0,0-.28-.66,1.3,1.3,0,0,0-1-.36,1.47,1.47,0,0,0-1.46,1.46,1.39,1.39,0,0,0,.42,1,14,14,0,0,0,1.72,1.22,16.45,16.45,0,0,1,3.6,2.48,6.63,6.63,0,1,1-9.37,9.37,6.49,6.49,0,0,1-1.76-3.34l4.12-.88A2.52,2.52,0,0,0,786.51,335.76Z"/>
    </g>
    <g>
      <path d="M765.34,591.64v32h-4.14V597h-3.06l4.21-5.41Z"/>
      <path d="M793.89,611.4q-1.78,1.92-5.91,1.92a9.34,9.34,0,0,1-6.89-2.74,11.39,11.39,0,0,1,16.1-16.12q3.2,3.22,3.22,8.95v.06a16.75,16.75,0,0,1-3.06,10A126.88,126.88,0,0,1,789,623.67h-5.45A87.07,87.07,0,0,0,793.89,611.4Zm2.4-8.89a7.13,7.13,0,1,0-2.09,5A6.85,6.85,0,0,0,796.29,602.51Z"/>
      <path d="M819.73,611.4q-1.78,1.92-5.91,1.92a9.34,9.34,0,0,1-6.89-2.74A11.39,11.39,0,0,1,823,594.46q3.2,3.22,3.22,8.95v.06a16.75,16.75,0,0,1-3.06,10,126.88,126.88,0,0,1-8.33,10.23h-5.45A87.07,87.07,0,0,0,819.73,611.4Zm2.4-8.89a7.13,7.13,0,1,0-2.09,5A6.85,6.85,0,0,0,822.13,602.51Z"/>
      <path d="M852,612.8a11.38,11.38,0,0,1-22.76,0V603A11.38,11.38,0,0,1,852,603ZM847.76,603a6.83,6.83,0,0,0-2.09-5,7.15,7.15,0,0,0-10.09,0,6.83,6.83,0,0,0-2.09,5v9.79a7.14,7.14,0,0,0,14.27,0Z"/>
      <path d="M860.69,619.25a2.44,2.44,0,0,0,1.76.72,2.48,2.48,0,0,0,2.48-2.5,2.37,2.37,0,0,0-.72-1.74,14.55,14.55,0,0,0-2.14-1.54,14.49,14.49,0,0,1-3.18-2.16,5.38,5.38,0,0,1-1.64-3.94,5.62,5.62,0,0,1,5.61-5.63,5.21,5.21,0,0,1,3.86,1.56,5,5,0,0,1,1.4,2.46l-4,1.16a1.88,1.88,0,0,0-.28-.66,1.3,1.3,0,0,0-1-.36,1.47,1.47,0,0,0-1.46,1.46,1.39,1.39,0,0,0,.42,1,14,14,0,0,0,1.72,1.22,16.45,16.45,0,0,1,3.6,2.48,6.63,6.63,0,1,1-9.37,9.37,6.49,6.49,0,0,1-1.76-3.34l4.12-.88A2.52,2.52,0,0,0,860.69,619.25Z"/>
    </g>
    <g>
      <path d="M210.46,164.16v-42.5h2.81v42.5a10.11,10.11,0,0,0,1.78,2.41,9.54,9.54,0,0,0,13.39,0,9,9,0,0,0,2.83-6.67V121.66h2.81V160.1a11.77,11.77,0,0,1-3.59,8.38,12.37,12.37,0,0,1-17.47,0,10.85,10.85,0,0,1-1.16-1.28,10.93,10.93,0,0,1-1.16,1.28A11.94,11.94,0,0,1,202,172.1a12.39,12.39,0,0,1-12.34-12V121.66h2.81v38.19a9,9,0,0,0,2.83,6.67,9.54,9.54,0,0,0,13.39,0A10.17,10.17,0,0,0,210.46,164.16Z"/>
      <path d="M285.07,128.46a25.65,25.65,0,1,1-18.14-7.52A24.72,24.72,0,0,1,285.07,128.46Zm-18.14-4.64a22.79,22.79,0,0,0-16.11,38.91A22.79,22.79,0,0,0,283,130.49,22,22,0,0,0,266.93,123.82Z"/>
      <path d="M304.39,121.66l18.78,32.5,18.75-32.5h3.22l-.12.22v49.78h-2.81V126.75l-19,32.94-19.06-32.94v44.91H301.3V121.88l-.12-.22Z"/>
      <path d="M379.52,121.66v2.81H357.33v20.78h22.19v2.81H357.33v20.78h22.19v2.81h-25v-50Z"/>
      <path d="M388.11,121.66h3.09l25.69,44.47V121.66h2.81v50h-2.81l-26-44.91v44.91h-2.81Z"/>
      <path d="M429.24,126.82a2.38,2.38,0,0,1-1.25-.72,2.77,2.77,0,0,1,0-4,2.83,2.83,0,0,1,4,0,2.66,2.66,0,0,1,.83,2,3.34,3.34,0,0,1-.22,1.22l-3.06,6.19h-2Z"/>
      <path d="M451.46,144A21.18,21.18,0,0,1,443,139.1a10.58,10.58,0,0,1,15-14.94,8.88,8.88,0,0,1,2.38,3.72l-2.53,1a7.76,7.76,0,0,0-1.84-2.81,7.79,7.79,0,0,0-11,11,20.92,20.92,0,0,0,5.88,3.84A24.79,24.79,0,0,1,461,147a14.79,14.79,0,1,1-25.09,12.84l2.66-1a12.06,12.06,0,1,0,20.5-9.94A22.82,22.82,0,0,0,451.46,144Z"/>
      <path d="M506.14,144a21.18,21.18,0,0,1-8.44-4.87,10.58,10.58,0,0,1,15-14.94,8.88,8.88,0,0,1,2.38,3.72l-2.53,1a7.76,7.76,0,0,0-1.84-2.81,7.79,7.79,0,0,0-11,11,20.92,20.92,0,0,0,5.88,3.84,24.79,24.79,0,0,1,10.09,6,14.79,14.79,0,1,1-25.09,12.84l2.66-1a12.06,12.06,0,1,0,20.5-9.94A22.82,22.82,0,0,0,506.14,144Z"/>
      <path d="M556.08,121.66h2.84V157.6a16.55,16.55,0,0,1-4.78,9.72,16.33,16.33,0,0,1-27.87-11.53V121.66h2.84v34.13a13.48,13.48,0,0,0,27,0Z"/>
      <path d="M590.18,121.66v2.81H571.11v20.78h19.06v2.81H571.11v23.59H568.3v-50Z"/>
      <path d="M620.64,121.66v2.81H601.58v20.78h19.06v2.81H601.58v23.59h-2.81v-50Z"/>
      <path d="M641.39,154.28q-.41,0-.84,0h-8.5v17.34h-2.81v-50h13.13a16.54,16.54,0,0,1,9.72,4.78,16.4,16.4,0,0,1-7.59,27.44L656,171.66h-3.47Zm-9.34-29.78v27h8.5a13.48,13.48,0,0,0,0-27Z"/>
      <path d="M687.43,152.5H670.11l-7,19.16h-3l18.63-51.16,18.59,51.16h-3Zm-1-2.81-7.62-21-7.62,21Z"/>
      <path d="M744.21,165.44a23.78,23.78,0,0,1-17,6.81,25.6,25.6,0,0,1-18.11-43.69,25.61,25.61,0,0,1,35.33-.84l-2.12,1.94a22.74,22.74,0,0,0-31.16,33.09,22.76,22.76,0,0,0,30.28,1.69V149.19h2.81Z"/>
      <path d="M778,121.66v2.81H755.8v20.78H778v2.81H755.8v20.78H778v2.81H753v-50Z"/>
    </g>
    <g>
      <path d="M195.83,214.34h.51l9.1,19h-.65l-2.7-5.67h-12l-2.7,5.67h-.62Zm6,12.82-5.75-12-5.75,12Z"/>
      <path d="M216.81,214.48h.59v18.35H229v.54h-12.2Z"/>
      <path d="M231,226.68v-.05a7,7,0,1,1,14-.05v.05a7,7,0,1,1-14,.05Zm13.44,0v-.05a6.42,6.42,0,1,0-12.85,0v.05a6.42,6.42,0,1,0,12.85,0Z"/>
      <path d="M248.16,226.68v-.05a7,7,0,1,1,14-.05v.05a7,7,0,1,1-14,.05Zm13.44,0v-.05a6.42,6.42,0,1,0-12.85,0v.05a6.42,6.42,0,1,0,12.85,0Z"/>
      <path d="M266.25,213.67h.57v15l9.37-8.77h.76l-6.42,6,6.86,7.53h-.7l-6.51-7.18-3.35,3.1v4.08h-.57Z"/>
      <path d="M293.52,215h-6.83v-.54h14.25V215h-6.83v18.35h-.59Z"/>
      <path d="M303.64,213.67h.57v9.91a5.58,5.58,0,0,1,5.43-4c3.64,0,5.67,2.46,5.67,6.18v7.64h-.57v-7.58c0-3.37-1.75-5.7-5.16-5.7a5.56,5.56,0,0,0-5.37,5.8v7.48h-.57Z"/>
      <path d="M320.06,219.87h.57v4.32c.62-2.24,2.56-4.67,5.56-4.64v.54h-.13c-3.37,0-5.43,3.7-5.43,6.29v7h-.57Z"/>
      <path d="M327.46,226.68v-.05a7,7,0,1,1,14-.05v.05a7,7,0,1,1-14,.05Zm13.44,0v-.05a6.42,6.42,0,1,0-12.85,0v.05a6.42,6.42,0,1,0,12.85,0Z"/>
      <path d="M345.28,227.51v-7.64h.57v7.58c0,3.37,1.75,5.7,5.16,5.7a5.56,5.56,0,0,0,5.37-5.8v-7.48h.57v13.5h-.57v-3.7a5.58,5.58,0,0,1-5.42,4C347.3,233.69,345.28,231.24,345.28,227.51Z"/>
      <path d="M361.69,235.69l.35-.46a9.21,9.21,0,0,0,5.78,2c3.59,0,6-2.05,6-6v-2.75A6.67,6.67,0,0,1,361.07,226v-.05a6.67,6.67,0,0,1,12.74-2.48v-3.59h.57v11.45a6.45,6.45,0,0,1-1.73,4.72,6.69,6.69,0,0,1-4.83,1.73A10,10,0,0,1,361.69,235.69ZM373.87,226V226a6.05,6.05,0,0,0-6.1-5.88,6,6,0,0,0-6.07,5.83V226a6.09,6.09,0,0,0,12.17.05Z"/>
      <path d="M379.41,213.67H380v9.91a5.58,5.58,0,0,1,5.43-4c3.64,0,5.67,2.46,5.67,6.18v7.64h-.57v-7.58c0-3.37-1.75-5.7-5.16-5.7a5.56,5.56,0,0,0-5.37,5.8v7.48h-.57Z"/>
      <path d="M403.68,214.48h.59v9.1h13.5v-9.1h.59v18.9h-.59v-9.26h-13.5v9.26h-.59Z"/>
      <path d="M423.71,214.48h.84V216h-.84Zm.13,5.4h.57v13.5h-.57Z"/>
      <path d="M428.27,231.62l.35-.46a8.18,8.18,0,0,0,5.13,1.92c2.43,0,4.26-1.24,4.26-3V230c0-2.08-2.24-2.67-4.43-3.29-2.75-.78-4.72-1.48-4.72-3.62v-.05c0-1.89,1.86-3.43,4.7-3.43a8.49,8.49,0,0,1,4.7,1.51l-.32.49a7.78,7.78,0,0,0-4.37-1.46c-2.46,0-4.1,1.27-4.1,2.86v.05c0,1.78,1.94,2.46,4.29,3.1,2.67.73,4.86,1.48,4.86,3.81V230c0,2.11-2.08,3.56-4.89,3.56A8.76,8.76,0,0,1,428.27,231.62Z"/>
      <path d="M443.29,229.91v-9.53h-2.13v-.51h2.13V215.2h.57v4.67h5v.51h-5v9.47c0,2,1,3.21,2.89,3.21a4.67,4.67,0,0,0,2.05-.49v.59a4.92,4.92,0,0,1-2.05.43C444.5,233.61,443.29,232.26,443.29,229.91Z"/>
      <path d="M451.25,226.68v-.05a7,7,0,1,1,14-.05v.05a7,7,0,1,1-14,.05Zm13.44,0v-.05a6.42,6.42,0,1,0-12.85,0v.05a6.42,6.42,0,1,0,12.85,0Z"/>
      <path d="M469.34,219.87h.57v4.32c.62-2.24,2.56-4.67,5.56-4.64v.54h-.13c-3.37,0-5.43,3.7-5.43,6.29v7h-.57Z"/>
      <path d="M477.06,237l.27-.46a4.94,4.94,0,0,0,2.27.67c1.57,0,2.43-.65,3.91-3.89l-6.5-13.5h.62l6.15,12.9,5.8-12.9h.59l-6.26,13.77c-1.57,3.46-2.56,4.13-4.32,4.13A5.2,5.2,0,0,1,477.06,237Z"/>
      <path d="M490.8,232h1v1.4h-1Z"/>
      <path d="M495.23,232h1v1.4h-1Z"/>
      <path d="M499.66,232h1v1.4h-1Z"/>
    </g>
  </g>
  <g id="_1920s" data-name="1920s">
    <g>
      <path d="M131.62,308.16v32h-4.14V313.56h-3.06l4.21-5.41Z"/>
      <path d="M160.17,327.91q-1.78,1.92-5.91,1.92a9.34,9.34,0,0,1-6.89-2.74A11.39,11.39,0,0,1,163.47,311q3.2,3.22,3.22,8.95V320a16.75,16.75,0,0,1-3.06,10,126.88,126.88,0,0,1-8.33,10.23h-5.45A87.07,87.07,0,0,0,160.17,327.91Zm2.4-8.89a7.13,7.13,0,1,0-2.09,5A6.85,6.85,0,0,0,162.57,319Z"/>
      <path d="M175.6,330.09l5.57-4.15a29.46,29.46,0,0,0,4.11-3.7,6.38,6.38,0,0,0,1.81-4.4,5.83,5.83,0,0,0-10-4.12q-1.46,1.46-1.82,5l-4.14-1.5a11.45,11.45,0,0,1,3-6.53,10,10,0,0,1,17.14,7.11,10.23,10.23,0,0,1-2.84,7.19,31.21,31.21,0,0,1-4.19,3.73l-5.31,4q-2.56,1.9-2.86,3.28H191.3v4.16H171.22Q172.34,332.52,175.6,330.09Z"/>
      <path d="M218.62,329.32a11.38,11.38,0,0,1-22.76,0v-9.79a11.38,11.38,0,0,1,22.76,0Zm-4.24-9.79a6.83,6.83,0,0,0-2.09-5,7.15,7.15,0,0,0-10.09,0,6.83,6.83,0,0,0-2.09,5v9.79a7.14,7.14,0,0,0,14.27,0Z"/>
      <path d="M227.31,335.76a2.44,2.44,0,0,0,1.76.72,2.48,2.48,0,0,0,2.48-2.5,2.37,2.37,0,0,0-.72-1.74,14.55,14.55,0,0,0-2.14-1.54,14.49,14.49,0,0,1-3.18-2.16,5.38,5.38,0,0,1-1.64-3.94,5.62,5.62,0,0,1,5.61-5.63,5.21,5.21,0,0,1,3.86,1.56,5,5,0,0,1,1.4,2.46l-4,1.16a1.88,1.88,0,0,0-.28-.66,1.3,1.3,0,0,0-1-.36,1.47,1.47,0,0,0-1.46,1.46,1.39,1.39,0,0,0,.42,1,14,14,0,0,0,1.72,1.22,16.45,16.45,0,0,1,3.6,2.48,6.63,6.63,0,1,1-9.37,9.37,6.49,6.49,0,0,1-1.76-3.34l4.12-.88A2.52,2.52,0,0,0,227.31,335.76Z"/>
    </g>
  </g>
  <g id="_1940s" data-name="1940s">
    <g>
      <path d="M315.36,308.16v32h-4.14V313.56h-3.06l4.21-5.41Z"/>
      <path d="M343.91,327.91q-1.78,1.92-5.91,1.92a9.34,9.34,0,0,1-6.89-2.74A11.39,11.39,0,0,1,347.21,311q3.2,3.22,3.22,8.95V320a16.75,16.75,0,0,1-3.06,10A126.88,126.88,0,0,1,339,340.19H333.6A87.07,87.07,0,0,0,343.91,327.91Zm2.4-8.89a7.13,7.13,0,1,0-2.09,5A6.85,6.85,0,0,0,346.31,319Z"/>
      <path d="M369,308.16h3.62v19.24h2.82v4.14h-2.82v8.65h-4.14v-8.65H355.36Zm-.52,9.35-5.91,9.89h5.91Z"/>
      <path d="M403.2,329.32a11.38,11.38,0,0,1-22.76,0v-9.79a11.38,11.38,0,0,1,22.76,0ZM399,319.53a6.83,6.83,0,0,0-2.09-5,7.15,7.15,0,0,0-10.09,0,6.83,6.83,0,0,0-2.09,5v9.79a7.14,7.14,0,0,0,14.27,0Z"/>
      <path d="M411.89,335.76a2.44,2.44,0,0,0,1.76.72,2.48,2.48,0,0,0,2.48-2.5,2.37,2.37,0,0,0-.72-1.74,14.55,14.55,0,0,0-2.14-1.54,14.49,14.49,0,0,1-3.18-2.16,5.38,5.38,0,0,1-1.64-3.94,5.62,5.62,0,0,1,5.61-5.63,5.21,5.21,0,0,1,3.86,1.56,5,5,0,0,1,1.4,2.46l-4,1.16a1.88,1.88,0,0,0-.28-.66,1.3,1.3,0,0,0-1-.36,1.47,1.47,0,0,0-1.46,1.46,1.39,1.39,0,0,0,.42,1,14,14,0,0,0,1.72,1.22,16.45,16.45,0,0,1,3.6,2.48,6.63,6.63,0,1,1-9.37,9.37,6.49,6.49,0,0,1-1.76-3.34l4.12-.88A2.52,2.52,0,0,0,411.89,335.76Z"/>
    </g>
  </g>
</svg>
